<svg width="86" height="64" viewBox="0 0 86 64" fill="none" xmlns="http://www.w3.org/2000/svg">
<path fill-rule="evenodd" clip-rule="evenodd" d="M59.3819 0.000256C64.7878 0.000256 69.8711 2.10861 73.6935 5.9376C77.5166 9.76621 79.6217 14.8572 79.6217 20.2717C79.6217 22.3357 79.3159 24.3525 78.7257 26.2704H83.8678C85.0455 26.2704 86 27.2266 86 28.4056C86 29.5857 85.0455 30.5414 83.8678 30.5414H77.4711C77.2694 30.5414 77.0743 30.5134 76.8894 30.461C76.0183 31.9567 74.9485 33.3495 73.6935 34.6062L44.9716 63.3745C44.5537 63.7911 44.0085 63.9996 43.4627 63.9996C42.9168 63.9996 42.3717 63.7911 41.9552 63.3739L13.2326 34.6056C12.1752 33.5467 11.2596 32.3988 10.4855 31.1857C10.3146 31.23 10.1353 31.2535 9.95046 31.2535H2.13228C0.954514 31.2535 0 30.2975 0 29.1179C0 27.938 0.954514 26.9823 2.13228 26.9823H8.447C5.96466 19.8606 7.55985 11.6185 13.2326 5.9376C17.055 2.10861 22.1375 0.000256 27.5442 0.000256C32.9501 0.000256 38.0333 2.10861 41.8564 5.9376L43.4634 7.54701L45.0704 5.9376C48.8928 2.10861 53.9753 0.000256 59.3819 0.000256ZM70.6778 8.95744C75.5549 13.8422 76.6134 21.1252 73.8532 27.0511H56.352L53.1765 20.0557C52.937 19.5268 52.4153 19.2053 51.8218 19.2222C51.2425 19.2471 50.7365 19.6205 50.5431 20.1681L44.0526 38.4874L36.1619 16.6009C35.9672 16.0607 35.4661 15.6899 34.8918 15.6628C34.2777 15.6342 33.7837 15.9581 33.5393 16.4787L28.2372 27.7629H13.4264C10.2334 21.7181 11.174 14.0397 16.2483 8.95744C19.2654 5.93562 23.2768 4.2711 27.5442 4.2711C31.8108 4.2711 35.823 5.93562 38.8407 8.95744L41.9552 12.0769C42.7882 12.9114 44.1373 12.9114 44.9702 12.0769L48.0846 8.95744C51.1025 5.93562 55.1139 4.2711 59.3813 4.2711C63.6485 4.2711 67.6607 5.93562 70.6778 8.95744ZM16.2483 31.586C15.9117 31.2488 15.5933 30.9002 15.293 30.5414H29.439C29.9898 30.5414 30.1917 30.2924 30.4262 29.7935L34.653 20.7978L42.7293 43.1967C42.9325 43.7604 43.467 44.1364 44.0661 44.1364H44.069C44.6695 44.1348 45.2041 43.755 45.4044 43.1887L52.0457 24.4431L54.143 29.0638C54.3733 29.5727 55.1793 29.83 55.7365 29.83H72.195C71.7388 30.4427 71.233 31.0299 70.6778 31.586L43.4634 58.8444L16.2483 31.586Z" fill="#3172B9"/>
</svg>
