<svg width="66" height="65" viewBox="0 0 66 65" fill="none" xmlns="http://www.w3.org/2000/svg">
<path fill-rule="evenodd" clip-rule="evenodd" d="M43.6128 30.9899L46.4749 28.1281C46.644 28.1414 46.8146 28.148 46.9861 28.148C48.692 28.148 50.2957 27.4839 51.5019 26.2781L54.2273 23.5528C56.7171 21.0626 56.7171 17.012 54.2273 14.5222L41.5737 1.8705C40.3675 0.66443 38.7638 -0.000325 37.058 -0.000325C35.3521 -0.000325 33.7484 0.66443 32.5423 1.87012L29.8168 4.59524C28.4428 5.96888 27.8271 7.81859 27.9695 9.61864L10.6174 26.9686C10.4483 26.9554 10.2778 26.9489 10.1063 26.9489C8.40058 26.9489 6.7967 27.6128 5.59056 28.8189L2.86518 31.5442C0.375155 34.0338 0.37522 38.0847 2.86518 40.5746L15.5187 53.2266C16.7248 54.4326 18.3285 55.0968 20.0344 55.0968C21.7403 55.0968 23.344 54.4326 24.5501 53.2266L27.2756 50.5016C28.4817 49.2955 29.1461 47.6917 29.1461 45.9864C29.1461 45.8149 29.1393 45.6442 29.126 45.4754L31.9883 42.613L52.5069 63.1298C53.7131 64.3359 55.3168 64.9996 57.0227 64.9996C58.7285 64.9996 60.3323 64.3359 61.5385 63.1298L64.1315 60.5372C66.6215 58.047 66.6213 53.9963 64.1315 51.5061L43.6128 30.9899ZM28.7033 39.244L23.5484 44.3984L23.9482 44.7982C24.6045 45.4544 24.6045 46.5182 23.9482 47.1745L21.2228 49.8995C20.8947 50.2278 20.4645 50.3916 20.0344 50.3916C19.6044 50.3916 19.1743 50.2278 18.8461 49.8995L6.19266 37.2474C5.53628 36.5913 5.53628 35.5271 6.19266 34.8711L8.91797 32.1457C9.24623 31.8178 9.67626 31.6537 10.1064 31.6537C10.5364 31.6537 10.9666 31.8178 11.2948 32.1457L11.6946 32.5456L33.5443 10.6985L33.1443 10.2991C32.488 9.64249 32.488 8.57844 33.1443 7.92227L35.8698 5.19733C36.1978 4.86941 36.628 4.70529 37.058 4.70529C37.4881 4.70529 37.9183 4.86941 38.2464 5.19733L50.9 17.8496C51.5563 18.5056 51.5563 19.5694 50.9 20.226L48.1746 22.9509C47.8464 23.279 47.4162 23.4432 46.9862 23.4432C46.5561 23.4432 46.126 23.279 45.7979 22.9509L45.398 22.551L40.243 27.7057L36.7828 31.165L32.1636 35.7839L28.7033 39.244ZM60.8041 57.2099L58.2111 59.8026C57.8829 60.1309 57.4528 60.2946 57.0228 60.2946C56.5926 60.2946 56.1625 60.1309 55.8344 59.8026L35.3157 39.2864L40.2854 34.3167L60.8041 54.8335C61.4603 55.4897 61.4603 56.5538 60.8041 57.2099Z" fill="#3172B9"/>
</svg>
