<svg width="68" height="66" viewBox="0 0 68 66" fill="none" xmlns="http://www.w3.org/2000/svg">
<path fill-rule="evenodd" clip-rule="evenodd" d="M50.3932 0.004026C40.4378 -0.211794 32.146 7.63818 31.8997 17.512L31.7757 22.4832C31.7418 23.8389 32.8326 24.9727 34.1996 25.0023C35.5665 25.0319 36.7127 23.9467 36.7465 22.5906L36.8705 17.6198C37.0489 10.471 43.0625 4.77794 50.2702 4.93449C57.4779 5.09065 63.201 11.0384 63.0227 18.187C62.8444 25.3355 56.8307 31.0287 49.623 30.8722L18.5001 30.1973C8.54454 29.9814 0.252824 37.831 0.006528 47.7048C-0.239836 57.579 7.65136 65.7796 17.6068 65.9956C27.5623 66.2113 35.854 58.3619 36.1003 48.4881L36.223 43.5716C36.2568 42.2155 35.1661 41.0818 33.7991 41.0525C32.4321 41.0229 31.286 42.1081 31.2521 43.4638L31.1294 48.3798C30.9512 55.5287 24.9375 61.2219 17.7298 61.0656C10.522 60.909 4.79896 54.9619 4.9774 47.813C5.15569 40.664 11.1693 34.9712 18.3771 35.1273L49.5 35.8024C59.4555 36.0184 67.7472 28.1687 67.9935 18.2949C68.2399 8.42068 60.3487 0.22011 50.3932 0.004026Z" fill="#3172B9"/>
</svg>
