<svg width="64" height="64" viewBox="0 0 64 64" fill="none" xmlns="http://www.w3.org/2000/svg">
<path fill-rule="evenodd" clip-rule="evenodd" d="M63.5478 12.023C63.0557 11.0752 62.2238 10.3752 61.2051 10.0527L39.0664 3.04019C39.0577 3.03738 39.0488 3.03578 39.0397 3.0336L38.9635 2.79226C38.2974 0.689664 36.0448 -0.478656 33.9428 0.18688L2.79462 10.0524C1.77594 10.3748 0.944128 11.0748 0.451968 12.0234C-0.040192 12.9721 -0.133376 14.0552 0.189312 15.0739L14.8053 61.2072C15.3447 62.9095 16.9236 63.9996 18.6211 63.9996C19.0202 63.9996 19.4259 63.9391 19.8259 63.8128L31.9999 59.9567L44.1731 63.8126C44.5738 63.9391 44.9793 63.9996 45.3788 63.9996C47.0761 63.9996 48.6552 62.9095 49.1944 61.2076L51.5612 53.737C51.5646 53.7257 51.5666 53.7151 51.5699 53.704C52.3161 53.329 52.9244 52.7319 53.3166 51.9756C53.8087 51.0278 53.902 49.9441 53.5793 48.9256L53.3324 48.1464L63.8104 15.0735C64.1333 14.0548 64.04 12.9721 63.5478 12.023ZM46.6525 60.402C46.4306 61.103 45.6796 61.4927 44.9784 61.2705L36.4159 58.5581L48.4438 54.7485L46.6525 60.402ZM50.9498 50.7476C50.7859 51.0642 50.5085 51.2976 50.1689 51.4048L31.6461 57.2717C31.617 57.2799 31.5886 57.2893 31.5603 57.299L19.021 61.2707C18.3204 61.4925 17.5695 61.103 17.3473 60.402L2.73133 14.2687C2.62374 13.9291 2.65491 13.5677 2.81894 13.2518C2.98285 12.9355 3.26022 12.7023 3.59981 12.5946L34.7479 2.72941H34.7477C35.4488 2.50733 36.1993 2.89651 36.4214 3.59763L51.0374 49.7308C51.145 50.0706 51.1139 50.4317 50.9498 50.7476ZM42.4447 13.7802L53.4456 17.2644L48.4969 32.8838L42.4447 13.7802ZM61.2686 14.2681L51.9338 43.7321L49.8956 37.2982L55.9875 18.0698C56.2026 17.3908 56.1403 16.6685 55.8124 16.0362C55.4843 15.4045 54.9298 14.9378 54.2507 14.7227L41.7334 10.7578C41.6458 10.7302 41.5576 10.7119 41.4696 10.7021L40.0244 6.14099L60.4001 12.5946C60.7397 12.7019 61.0172 12.9355 61.1811 13.2514C61.345 13.5677 61.3762 13.9284 61.2686 14.2681ZM27.186 23.014C26.1098 23.3552 25.194 24.0601 24.5793 24.9781C23.5478 24.582 22.393 24.5331 21.3169 24.874C20.0631 25.2716 19.0388 26.1331 18.433 27.3008C17.8271 28.4683 17.7124 29.8023 18.1096 31.0557C18.525 32.3667 19.4932 33.4164 20.7661 33.9365L26.2854 36.1911C26.6174 36.3266 26.9712 36.3947 27.3254 36.3947C27.6055 36.3947 27.8858 36.3521 28.1559 36.2668C28.7681 36.0723 29.2959 35.6676 29.6419 35.1273L32.8554 30.1057C33.5966 28.9478 33.7834 27.5316 33.368 26.2209C32.9707 24.967 32.1089 23.9425 30.9411 23.3369C29.7736 22.7315 28.4399 22.6173 27.186 23.014ZM30.6095 28.6682L27.3959 33.6896C27.3853 33.7063 27.3693 33.7187 27.3506 33.7242C27.3318 33.7306 27.3115 33.73 27.2934 33.722L21.7745 31.4678C21.2365 31.2484 20.8272 30.8041 20.6516 30.2506C20.4694 29.6756 20.5222 29.064 20.7999 28.529C21.0776 27.9933 21.5473 27.5982 22.1224 27.4162C22.3496 27.3439 22.5813 27.3087 22.8106 27.3087C23.3507 27.3087 23.8772 27.5041 24.2993 27.8756C24.6503 28.1844 25.1374 28.287 25.5828 28.146C26.0285 28.0041 26.3676 27.64 26.4765 27.1854C26.6634 26.4063 27.2298 25.7976 27.9914 25.5561C28.5668 25.3736 29.1782 25.4262 29.7134 25.7039C30.2488 25.9819 30.644 26.4516 30.8261 27.026C31.0017 27.5804 30.9226 28.1784 30.6095 28.6682ZM34.2927 9.74573C33.8487 8.34406 32.3471 7.56474 30.9453 8.00902L9.74912 14.7227C9.07021 14.9378 8.51552 15.4044 8.18758 16.0362C7.85946 16.6685 7.79718 17.3908 8.01242 18.0698L17.8929 49.257C18.2525 50.3913 19.305 51.1183 20.4367 51.118C20.7028 51.118 20.9735 51.0781 21.2403 50.9936L42.4364 44.2801C43.1153 44.065 43.67 43.5984 43.998 42.9661C44.3261 42.3342 44.3884 41.6116 44.1731 40.9329L34.2927 9.74573ZM20.4349 48.4515L10.5544 17.2646L21.9791 13.6463L31.7508 10.5517L41.6312 41.7382L20.4349 48.4515Z" fill="white"/>
</svg>
