<svg width="116" height="45" viewBox="0 0 116 45" fill="none" xmlns="http://www.w3.org/2000/svg">
<path fill-rule="evenodd" clip-rule="evenodd" d="M0.998505 26.4393V1.32679H4.22391V23.1748H13.1371V26.4393H0.998505ZM22.0098 1.32679V26.4393H18.7845V1.32679H22.0098ZM53.7435 13.8515C53.7435 10.3045 52.4962 7.2751 50.0032 4.7642C47.5104 2.25233 44.5027 0.996876 40.9812 0.996876C37.4588 0.996876 34.452 2.25233 31.9583 4.7642C29.4654 7.2751 28.219 10.3045 28.219 13.8515C28.219 17.3984 29.4654 20.4278 31.9583 22.9396C34.452 25.4505 37.4588 26.7059 40.9812 26.7059C44.5027 26.7059 47.5104 25.4505 50.0032 22.9396C52.4962 20.4278 53.7435 17.3984 53.7435 13.8515ZM34.2573 7.07891C36.1109 5.21128 38.3522 4.27716 40.9812 4.27716C43.6095 4.27716 45.8506 5.21128 47.7051 7.07891C49.5594 8.94693 50.4866 11.2043 50.4866 13.8515C50.4866 16.4985 49.5594 18.7595 47.7051 20.6321C45.8506 22.5051 43.6095 23.4414 40.9812 23.4414C38.3629 23.4414 36.1241 22.5051 34.2648 20.6321C32.4055 18.7595 31.4757 16.4985 31.4757 13.8515C31.4757 11.2043 32.4029 8.94693 34.2573 7.07891ZM62.5848 1.32679H59.6399V26.4393H62.8653V8.29533L73.2897 26.4393H76.1109V1.32679H72.869V19.2505L62.5848 1.32679ZM85.9183 1.32679V26.4393H82.6921V1.32679H85.9183ZM114.223 22.6412L111.808 20.4594C109.585 22.4476 107.268 23.4414 104.858 23.4414C102.25 23.4414 100.019 22.5101 98.1649 20.6482C96.3105 18.7852 95.3834 16.5303 95.3834 13.8829C95.3834 11.2459 96.3105 8.99647 98.1649 7.13404C100.019 5.27174 102.25 4.34044 104.858 4.34044C107.268 4.34044 109.585 5.33422 111.808 7.32262L114.223 5.1092C111.273 2.39955 108.151 1.04444 104.858 1.04444C101.336 1.04444 98.3339 2.29989 95.8511 4.81075C93.368 7.32262 92.1265 10.3467 92.1265 13.8829C92.1265 17.43 93.368 20.4544 95.8511 22.9553C98.3339 25.4561 101.336 26.7059 104.858 26.7059C108.151 26.7059 111.273 25.3514 114.223 22.6412ZM53.9768 41.8635H57.3219V42.5374H53.2468V35.3086H53.9768V41.8635ZM58.7102 41.0062C58.6153 40.7949 58.5584 40.5697 58.5377 40.3323H62.4916V40.0258C62.4916 39.6991 62.4405 39.3917 62.3389 39.1018C62.2375 38.8125 62.0906 38.561 61.8985 38.3465C61.7054 38.132 61.4671 37.9601 61.1833 37.8306C60.8996 37.7017 60.5786 37.6368 60.2206 37.6368C59.8824 37.6368 59.5681 37.7001 59.2777 37.8254C58.9874 37.952 58.7341 38.1271 58.5181 38.3515C58.301 38.5757 58.1327 38.8417 58.0107 39.1473C57.8895 39.4539 57.8284 39.7872 57.8284 40.1477C57.8284 40.5094 57.891 40.8423 58.0156 41.1489C58.141 41.4555 58.3117 41.7205 58.5279 41.9459C58.744 42.1701 59.0022 42.3446 59.3033 42.471C59.6037 42.5971 59.9303 42.6604 60.2816 42.6604C60.6735 42.6604 61.0398 42.5814 61.3813 42.4254C61.7228 42.2682 62.0354 42.0098 62.3191 41.649L61.802 41.2203C61.6666 41.4382 61.4687 41.63 61.2089 41.7973C60.9489 41.9642 60.6397 42.0472 60.2816 42.0472C60.0449 42.0472 59.8255 42.0032 59.6225 41.9143C59.4197 41.8261 59.2407 41.7048 59.0856 41.552C58.9296 41.3992 58.805 41.2171 58.7102 41.0062ZM61.3557 38.6728C61.6263 38.9555 61.7615 39.3252 61.7615 39.7806H58.5584C58.5584 39.5829 58.6038 39.3934 58.6954 39.209C58.7861 39.0254 58.9081 38.8616 59.0599 38.7188C59.2117 38.5757 59.3892 38.4619 59.592 38.3764C59.7949 38.2918 60.0045 38.2494 60.2206 38.2494C60.7073 38.2494 61.0859 38.3905 61.3557 38.6728ZM64.8375 44.1353C64.5234 43.9749 64.2685 43.762 64.0722 43.497L63.5755 44.028C63.8799 44.3553 64.2173 44.5961 64.5894 44.7525C64.9606 44.9096 65.3838 44.9876 65.8564 44.9876C66.3902 44.9876 66.8224 44.9062 67.154 44.7427C67.4847 44.5798 67.7438 44.3754 67.9294 44.1301C68.115 43.8852 68.2404 43.6158 68.3048 43.3233C68.3683 43.031 68.4005 42.7553 68.4005 42.4968V37.7592H67.7314V38.5558H67.7116C67.5763 38.3714 67.4311 38.2202 67.2752 38.1012C67.1202 37.9824 66.9626 37.8887 66.8043 37.8205C66.645 37.7522 66.4866 37.7051 66.3275 37.6778C66.169 37.6502 66.0189 37.6368 65.877 37.6368C65.5257 37.6368 65.2023 37.7001 64.9086 37.8254C64.6149 37.952 64.3617 38.1271 64.1488 38.3515C63.9352 38.5757 63.7685 38.8383 63.6465 39.1376C63.5252 39.4366 63.4642 39.7605 63.4642 40.1079C63.4642 40.4543 63.5285 40.7776 63.6573 41.0774C63.7852 41.3775 63.9608 41.6333 64.1843 41.8478C64.4071 42.0623 64.6686 42.2318 64.9697 42.3538C65.2699 42.4759 65.5932 42.5374 65.9373 42.5374C66.2821 42.5374 66.6096 42.4692 66.9206 42.3329C67.2315 42.1968 67.4947 41.9658 67.7116 41.6385H67.7314V42.4968C67.7314 42.7553 67.6992 42.9986 67.6357 43.2268C67.5714 43.4548 67.4667 43.6542 67.3214 43.8237C67.1755 43.994 66.9848 44.1285 66.7481 44.2274C66.5122 44.3255 66.2243 44.3754 65.8869 44.3754C65.5017 44.3754 65.1519 44.2957 64.8375 44.1353ZM64.3311 40.7967C64.2395 40.5757 64.1941 40.3389 64.1941 40.087C64.1941 39.8353 64.2395 39.5986 64.3311 39.3775C64.4219 39.1565 64.5473 38.9631 64.7056 38.7952C64.8649 38.6288 65.0505 38.4961 65.2634 38.3971C65.4761 38.2984 65.708 38.2494 65.9579 38.2494C66.235 38.2494 66.485 38.2984 66.7077 38.3971C66.9313 38.4961 67.1202 38.6288 67.2752 38.7952C67.4311 38.9631 67.5491 39.1565 67.63 39.3775C67.7116 39.5986 67.7521 39.8353 67.7521 40.087C67.7587 40.3664 67.7167 40.6183 67.6251 40.8423C67.5343 41.0669 67.404 41.2595 67.2348 41.4191C67.0658 41.5794 66.8719 41.7032 66.6525 41.7921C66.4321 41.8808 66.2012 41.9242 65.9579 41.9242C65.708 41.9242 65.4761 41.8761 65.2634 41.7764C65.0505 41.6783 64.8649 41.5454 64.7056 41.3791C64.5473 41.2116 64.4219 41.0178 64.3311 40.7967ZM72.9416 39.4848V39.6077H72.6075C72.3238 39.6077 72.0111 39.621 71.6696 39.6475C71.328 39.6758 71.0073 39.744 70.7069 39.8519C70.4057 39.9617 70.1558 40.126 69.9571 40.347C69.7575 40.5681 69.6576 40.8731 69.6576 41.2611C69.6576 41.4923 69.703 41.695 69.7946 41.8685C69.8861 42.0422 70.0074 42.1884 70.1592 42.3082C70.3118 42.427 70.4851 42.5157 70.6814 42.5732C70.8777 42.6303 71.0799 42.6604 71.2893 42.6604C71.6745 42.6604 72.0011 42.5906 72.2677 42.4509C72.5349 42.3112 72.766 42.082 72.9623 41.7613H72.9828C72.9828 41.891 72.9878 42.0239 72.9976 42.16C73.0076 42.2965 73.0232 42.422 73.043 42.5374H73.6923C73.6717 42.4079 73.6527 42.2434 73.6362 42.0422C73.6196 41.8412 73.6105 41.649 73.6105 41.4654V39.332C73.6105 39.0395 73.5635 38.7866 73.4686 38.5757C73.3747 38.3648 73.2493 38.1903 73.0942 38.0507C72.9383 37.911 72.7542 37.8064 72.5415 37.7385C72.3286 37.6708 72.1076 37.6368 71.8774 37.6368C70.9858 37.6368 70.3167 37.868 69.8705 38.3314L70.2762 38.8109C70.6879 38.436 71.1714 38.2494 71.7256 38.2494C72.5366 38.2494 72.9416 38.6613 72.9416 39.4848ZM71.9641 40.1843C72.2173 40.1676 72.4286 40.1585 72.5976 40.1585H72.9416V40.505C72.9416 40.7163 72.9127 40.9157 72.8557 41.1033C72.7981 41.2903 72.7089 41.4539 72.5868 41.5936C72.4656 41.733 72.3146 41.8429 72.1357 41.9242C71.9567 42.0066 71.7455 42.0472 71.5021 42.0472C71.3677 42.0472 71.2341 42.0321 71.102 42.0016C70.97 41.9708 70.8504 41.9193 70.7424 41.8478C70.6343 41.7764 70.5476 41.6849 70.4842 41.5727C70.4198 41.4605 70.3877 41.326 70.3877 41.1696C70.3877 40.9314 70.4701 40.7442 70.6359 40.6081C70.8018 40.472 71.0005 40.3713 71.2341 40.3067C71.4666 40.2424 71.7101 40.201 71.9641 40.1843ZM75.314 42.5374H75.983V34.8185H75.314V42.5374ZM84.0515 36.5037C83.7339 36.0334 83.2711 35.7992 82.6624 35.7992C82.4735 35.7992 82.2879 35.8239 82.1055 35.8756C81.9224 35.9272 81.7591 36.0052 81.6139 36.1098C81.4678 36.2161 81.3517 36.3525 81.2641 36.5185C81.1758 36.6854 81.1321 36.8808 81.1321 37.1058C81.1321 37.4325 81.2238 37.687 81.406 37.866C81.5883 38.0475 81.8143 38.1953 82.0849 38.3107C82.3555 38.4263 82.6507 38.5302 82.9717 38.6223C83.2926 38.7138 83.5887 38.8367 83.8584 38.9896C84.129 39.1425 84.3559 39.3451 84.5382 39.597C84.7205 39.8489 84.8113 40.1926 84.8113 40.6282C84.8113 40.9555 84.742 41.2495 84.6042 41.5112C84.4656 41.773 84.2824 41.9925 84.0564 42.1701C83.8296 42.3472 83.5763 42.4827 83.2958 42.5782C83.0155 42.6737 82.7333 42.7211 82.4496 42.7211C82.0106 42.7211 81.5933 42.6379 81.1981 42.471C80.803 42.3046 80.4664 42.0305 80.1893 41.649L80.8583 41.1696C81.0134 41.4348 81.2286 41.6475 81.5051 41.8078C81.7813 41.9674 82.108 42.0472 82.4851 42.0472C82.6674 42.0472 82.8488 42.0189 83.0311 41.9606C83.2126 41.9025 83.3759 41.818 83.5211 41.7048C83.6655 41.5936 83.7851 41.4555 83.8799 41.2919C83.974 41.1282 84.0209 40.9414 84.0209 40.7305C84.0209 40.4786 83.9681 40.2691 83.8643 40.1028C83.7587 39.935 83.6208 39.7953 83.4486 39.6841C83.2761 39.5711 83.0798 39.478 82.8603 39.4032C82.6409 39.3284 82.414 39.2536 82.1815 39.1782C81.9479 39.1034 81.7219 39.0188 81.5017 38.9231C81.2823 38.8282 81.0868 38.7073 80.9143 38.561C80.742 38.4147 80.6033 38.2301 80.4986 38.0091C80.3938 37.788 80.3411 37.5105 80.3411 37.1774C80.3411 36.83 80.407 36.5266 80.5389 36.2686C80.671 36.0101 80.8467 35.7956 81.0662 35.6253C81.2856 35.4552 81.5339 35.3287 81.8111 35.2473C82.0882 35.166 82.372 35.1249 82.6624 35.1249C83.0683 35.1249 83.4361 35.19 83.7678 35.3187C84.0985 35.4483 84.4062 35.6759 84.69 36.0035L84.0515 36.5037ZM90.6548 41.1489C90.7804 40.8423 90.8431 40.5094 90.8431 40.1477C90.8431 39.7872 90.7804 39.4539 90.6548 39.1473C90.5304 38.8417 90.3563 38.5757 90.1335 38.3515C89.91 38.1271 89.6452 37.952 89.3376 37.8254C89.0299 37.7001 88.69 37.6368 88.3187 37.6368C87.9541 37.6368 87.6175 37.7001 87.3099 37.8254C87.0022 37.952 86.7373 38.1271 86.5147 38.3515C86.2911 38.5757 86.1171 38.8417 85.9925 39.1473C85.8672 39.4539 85.8053 39.7872 85.8053 40.1477C85.8053 40.5094 85.8672 40.8423 85.9925 41.1489C86.1171 41.4555 86.2911 41.7205 86.5147 41.9459C86.7373 42.1701 87.0022 42.3446 87.3099 42.471C87.6175 42.5971 87.9541 42.6604 88.3187 42.6604C88.69 42.6604 89.0299 42.5971 89.3376 42.471C89.6452 42.3446 89.91 42.1701 90.1335 41.9459C90.3563 41.7205 90.5304 41.4555 90.6548 41.1489ZM89.9858 39.4032C90.0709 39.6344 90.1129 39.8827 90.1129 40.1477C90.1129 40.4137 90.0709 40.6622 89.9858 40.8938C89.9018 41.125 89.7822 41.326 89.6262 41.4954C89.4712 41.6668 89.2831 41.8012 89.0636 41.8994C88.8442 41.9981 88.596 42.0472 88.3187 42.0472C88.0417 42.0472 87.7933 41.9981 87.5738 41.8994C87.3544 41.8012 87.168 41.6668 87.0162 41.4954C86.8644 41.326 86.7456 41.125 86.6615 40.8938C86.5766 40.6622 86.5345 40.4137 86.5345 40.1477C86.5345 39.8827 86.5766 39.6344 86.6615 39.4032C86.7456 39.1716 86.8644 38.9713 87.0162 38.8001C87.168 38.6308 87.3544 38.4961 87.5738 38.3971C87.7933 38.2984 88.0417 38.2494 88.3187 38.2494C88.596 38.2494 88.8442 38.2984 89.0636 38.3971C89.2831 38.4961 89.4712 38.6308 89.6262 38.8001C89.7822 38.9713 89.9018 39.1716 89.9858 39.4032ZM92.2108 42.5374H92.8797V34.8185H92.2108V42.5374ZM97.9174 42.5374C97.9043 42.4079 97.896 42.2806 97.8928 42.1544C97.8885 42.0289 97.8869 41.9009 97.8869 41.7714H97.8671C97.7929 41.9009 97.698 42.0207 97.5833 42.1286C97.468 42.2384 97.34 42.3315 97.1981 42.4093C97.0563 42.4877 96.9053 42.5489 96.7468 42.5939C96.5877 42.6379 96.4309 42.6604 96.2759 42.6604C95.6671 42.6604 95.2175 42.4984 94.9271 42.1751C94.6368 41.852 94.4915 41.3906 94.4915 40.7918V37.7592H95.1606V40.4038C95.1606 40.6698 95.1812 40.904 95.2216 41.1083C95.2621 41.3126 95.3314 41.4837 95.4296 41.6234C95.5268 41.7629 95.6589 41.8685 95.8246 41.9399C95.9897 42.0114 96.1975 42.0472 96.4483 42.0472C96.4813 42.0472 96.5762 42.034 96.7321 42.0066C96.8872 41.9789 97.0513 41.9045 97.2237 41.7812C97.3953 41.6592 97.5495 41.4756 97.6848 41.2303C97.8193 40.9853 97.8869 40.6445 97.8869 40.2094V37.7592H98.5559V41.4857C98.5559 41.6153 98.5617 41.778 98.5715 41.9757C98.5815 42.1735 98.593 42.3604 98.6071 42.5374H97.9174ZM101.212 38.3714H102.581V37.7592H101.212V36.4112H100.543V37.7592H99.54V38.3714H100.543V41.384C100.543 41.649 100.58 41.8635 100.655 42.0273C100.73 42.1902 100.824 42.3197 100.939 42.4145C101.054 42.5106 101.18 42.5748 101.319 42.6086C101.457 42.6431 101.591 42.6604 101.72 42.6604C102.071 42.6604 102.371 42.6021 102.621 42.4857L102.591 41.8635C102.49 41.9177 102.378 41.9622 102.256 41.9956C102.135 42.0305 102.016 42.0472 101.902 42.0472C101.8 42.0472 101.707 42.0356 101.623 42.0114C101.538 41.9875 101.466 41.9459 101.405 41.8842C101.344 41.8229 101.297 41.7366 101.263 41.6234C101.23 41.5112 101.212 41.3667 101.212 41.1899V38.3714ZM104.466 35.922C104.466 36.0648 104.415 36.1812 104.314 36.2741C104.212 36.3657 104.101 36.4112 103.98 36.4112C103.858 36.4112 103.746 36.3657 103.645 36.2741C103.543 36.1812 103.492 36.0648 103.492 35.922C103.492 35.7789 103.543 35.6611 103.645 35.5696C103.746 35.4775 103.858 35.4315 103.98 35.4315C104.101 35.4315 104.212 35.4775 104.314 35.5696C104.415 35.6611 104.466 35.7789 104.466 35.922ZM104.314 42.5374H103.645V37.7592H104.314V42.5374ZM110.72 40.1477C110.72 40.5094 110.657 40.8423 110.533 41.1489C110.407 41.4555 110.233 41.7205 110.011 41.9459C109.787 42.1701 109.522 42.3446 109.215 42.471C108.907 42.5971 108.568 42.6604 108.196 42.6604C107.831 42.6604 107.495 42.5971 107.188 42.471C106.88 42.3446 106.615 42.1701 106.392 41.9459C106.169 41.7205 105.995 41.4555 105.87 41.1489C105.744 40.8423 105.682 40.5094 105.682 40.1477C105.682 39.7872 105.744 39.4539 105.87 39.1473C105.995 38.8417 106.169 38.5757 106.392 38.3515C106.615 38.1271 106.88 37.952 107.188 37.8254C107.495 37.7001 107.831 37.6368 108.196 37.6368C108.568 37.6368 108.907 37.7001 109.215 37.8254C109.522 37.952 109.787 38.1271 110.011 38.3515C110.233 38.5757 110.407 38.8417 110.533 39.1473C110.657 39.4539 110.72 39.7872 110.72 40.1477ZM109.99 40.1477C109.99 39.8827 109.948 39.6344 109.864 39.4032C109.779 39.1716 109.659 38.9713 109.503 38.8001C109.348 38.6308 109.161 38.4961 108.941 38.3971C108.721 38.2984 108.473 38.2494 108.196 38.2494C107.919 38.2494 107.67 38.2984 107.451 38.3971C107.231 38.4961 107.046 38.6308 106.893 38.8001C106.742 38.9713 106.623 39.1716 106.538 39.4032C106.454 39.6344 106.412 39.8827 106.412 40.1477C106.412 40.4137 106.454 40.6622 106.538 40.8938C106.623 41.125 106.742 41.326 106.893 41.4954C107.046 41.6668 107.231 41.8012 107.451 41.8994C107.67 41.9981 107.919 42.0472 108.196 42.0472C108.473 42.0472 108.721 41.9981 108.941 41.8994C109.161 41.8012 109.348 41.6668 109.503 41.4954C109.659 41.326 109.779 41.125 109.864 40.8938C109.948 40.6622 109.99 40.4137 109.99 40.1477ZM112.574 37.7592C112.588 37.8887 112.596 38.0158 112.6 38.1422C112.603 38.2681 112.605 38.3963 112.605 38.5252H112.625C112.699 38.3963 112.794 38.2767 112.909 38.1671C113.024 38.0588 113.152 37.9651 113.294 37.8871C113.436 37.8079 113.587 37.7473 113.745 37.7035C113.904 37.6585 114.061 37.6368 114.217 37.6368C114.825 37.6368 115.274 37.7982 115.565 38.1221C115.855 38.4446 116 38.9064 116 39.5049V42.5374H115.331V39.8934C115.331 39.3618 115.241 38.9555 115.057 38.6728C114.875 38.3905 114.538 38.2494 114.044 38.2494C114.011 38.2494 113.916 38.2636 113.761 38.29C113.605 38.3173 113.441 38.3921 113.269 38.5144C113.097 38.6374 112.942 38.821 112.808 39.0659C112.673 39.3111 112.605 39.6511 112.605 40.087V42.5374H111.936V38.8109C111.936 38.6819 111.931 38.5184 111.92 38.3207C111.91 38.1239 111.899 37.9358 111.885 37.7592H112.574ZM0.998505 39.7261H43.9825V38.3785H0.998505V39.7261Z" fill="#3172B9"/>
</svg>
